<?xml version="1.0" encoding="UTF-8"?><svg xmlns="http://www.w3.org/2000/svg" xmlns:xlink="http://www.w3.org/1999/xlink" viewBox="0 0 300 107.47"><defs><style>.f{fill:url(#e);}.g{fill:url(#d);}</style><linearGradient id="d" x1="223.45" y1="-36.73" x2="50" y2="136.72" gradientTransform="matrix(1, 0, 0, 1, 0, 0)" gradientUnits="userSpaceOnUse"><stop offset="0" stop-color="#8bf7a8"/><stop offset=".4" stop-color="#1683dd"/><stop offset=".72" stop-color="#69d6fa"/><stop offset="1" stop-color="#8bf7a8"/></linearGradient><linearGradient id="e" x1="226.98" y1="140.27" x2="46.43" y2="-40.27" xlink:href="#d"/></defs><g id="a"/><g id="b"><g id="c"><g><path class="g" d="M135.94,20.84c-7.82,0-14.77,2.99-19.56,7.82-.66,.67-1.79,.44-2.16-.43l-2.17-5.08c-.21-.49-.69-.81-1.23-.81h-9.49c-.74,0-1.33,.6-1.33,1.33v62.5c0,.74,.6,1.33,1.33,1.33h14c.74,0,1.33-.6,1.33-1.33V52.28c0-10.15,5.76-16.46,14.55-16.46,7.38,0,10.53,4.6,10.53,14.14v36.22c0,.74,.6,1.33,1.33,1.33h14.02c.74,0,1.33-.6,1.33-1.33V47.19c0-15.98-8.12-26.35-22.5-26.35Zm-119.27,1.33V86.17c0,.74-.6,1.33-1.33,1.33H1.33c-.74,0-1.33-.6-1.33-1.33V22.17c0-.74,.6-1.33,1.33-1.33H15.33c.74,0,1.33,.6,1.33,1.33ZM9.42,.07C3.97-.62-.62,3.97,.07,9.42c.47,3.71,3.47,6.71,7.18,7.18,5.45,.69,10.04-3.9,9.35-9.35C16.13,3.54,13.13,.54,9.42,.07ZM182.13,20.84h-14c-.74,0-1.33,.6-1.33,1.33V86.17c0,.74,.6,1.33,1.33,1.33h14c.74,0,1.33-.6,1.33-1.33V22.17c0-.74-.6-1.33-1.33-1.33ZM175.13,0h0c-4.6,0-8.33,3.73-8.33,8.33s3.73,8.33,8.33,8.33h0c4.6,0,8.33-3.73,8.33-8.33s-3.73-8.33-8.33-8.33Zm66.74,87.51h-19.65c-1.9,0-3.69-.16-5.38-.48h-.01c-10.45-1.95-16.66-9.82-16.66-21.68v-27.84h-8.29v-10.98l22.01-16.05c1.22-.89,2.93-.02,2.93,1.49v7.54c0,.73,.59,1.33,1.31,1.33h14.08c.73,0,1.31,.59,1.31,1.33v14.06c0,.64-.44,1.17-1.03,1.31-.09,.01-.18,.03-.28,.03h-14.08c-.72,0-1.31,.59-1.31,1.33v24.23h.02c0,5.99,3.57,9.45,9.67,9.45h2.95c1.99,4.05,4.66,7.78,7.95,11.07,1.41,1.41,2.89,2.7,4.46,3.87ZM85.3,34.58c-3.85-5.27-8.95-9.11-14.6-11.35l-8.68,7.66L76.58,2.83c.65-1.25-.82-2.51-1.96-1.68L38.74,27.19c-7.44,5.41-11.99,13.34-13.33,21.76-1.34,8.43,.54,17.36,5.96,24.82,3.85,5.27,8.94,9.1,14.6,11.36l8.68-7.67-14.57,28.07c-.64,1.24,.84,2.5,1.97,1.67l35.88-26.06c7.45-5.42,11.99-13.32,13.33-21.76,1.35-8.42-.54-17.36-5.95-24.81Zm-10.5,22.2c-1.44,9.09-9.99,15.3-19.07,13.86-9.09-1.44-15.3-9.99-13.85-19.08,1.44-9.09,9.98-15.3,19.07-13.85,9.09,1.44,15.3,9.98,13.86,19.07ZM266.7,20.84c-19.09,0-33.37,14.33-33.37,33.33s14.37,33.33,33.37,33.33c13.99,0,25.68-7.7,30.95-19.98,.52-1.2-.41-2.54-1.75-2.54h-14.51c-.61,0-1.2,.29-1.54,.78-2.74,4.05-7.46,6.53-13.15,6.53-7.62,0-13.07-3.88-15.17-10.97-.35-1.19,.55-2.38,1.81-2.38h44.63c.98,0,1.8-.74,1.88-1.7,.09-1.1,.15-2.21,.15-3.3,0-18.17-13.55-33.11-33.3-33.11Zm13.17,26.46h-25.81c-1.35,0-2.26-1.35-1.74-2.57,2.49-5.9,7.57-9.33,14.38-9.33s12.06,3.24,14.89,9.27c.57,1.23-.34,2.63-1.71,2.63Z"/><path class="f" d="M41.26,106.57c-.15,0-.3-.09-.38-.23-.07-.12-.08-.25,0-.39l14.57-28.07-1.4-1.09-8.26,7.3c-5.45-2.28-10.18-6.03-13.69-10.84-5.09-7.02-7.15-15.59-5.8-24.14,1.36-8.56,5.97-16.08,12.97-21.17L75.15,1.88c.08-.06,.17-.09,.25-.09,.14,0,.3,.09,.38,.22,.08,.12,.08,.26,0,.4l-14.56,28.05,1.4,1.09,8.26-7.29c5.44,2.26,10.17,6,13.69,10.84,5.1,7.03,7.15,15.6,5.78,24.13-1.35,8.56-5.96,16.08-12.96,21.17l-35.88,26.06c-.09,.06-.17,.09-.25,.09ZM58.3,36.6c-8.68,0-15.97,6.23-17.33,14.82-.74,4.63,.38,9.28,3.14,13.08,2.76,3.8,6.83,6.3,11.47,7.03,.91,.14,1.84,.22,2.76,.22,8.69,0,15.98-6.24,17.35-14.83,1.51-9.57-5.04-18.59-14.61-20.1-.92-.15-1.85-.22-2.77-.22Zm208.4,50.01c-18.51,0-32.46-13.94-32.46-32.43s13.96-32.43,32.46-32.43,32.4,13.85,32.4,32.21c0,1.01-.05,2.07-.15,3.23-.04,.49-.47,.87-.98,.87h-44.63c-.89,0-1.7,.41-2.23,1.11-.52,.7-.68,1.58-.44,2.43,2.22,7.49,7.91,11.62,16.03,11.62,5.85,0,10.92-2.53,13.89-6.93,.16-.24,.47-.39,.79-.39h14.51c.34,0,.66,.17,.84,.45,.17,.26,.2,.56,.08,.83-5.14,11.99-16.68,19.43-30.12,19.43Zm0-52.1c-7.11,0-12.52,3.51-15.21,9.88-.36,.85-.27,1.81,.24,2.58,.52,.78,1.39,1.25,2.33,1.25h25.81c.96,0,1.85-.48,2.36-1.29,.5-.79,.57-1.78,.17-2.63-2.96-6.31-8.53-9.79-15.7-9.79Zm-44.48,52.1c-1.56,0-3.06-.11-4.48-.34l-1.2-.22c-9.84-2.03-15.48-9.55-15.48-20.71v-28.74h-8.29v-9.62l21.64-15.78c.17-.12,.35-.18,.55-.18,.46,0,.95,.36,.95,.95v7.54c0,1.23,.99,2.24,2.22,2.24h14.08c.23,0,.41,.19,.41,.43v14.06c0,.2-.13,.37-.31,.42-.03,0-.07,0-.1,0h-14.08c-1.21,0-2.21,1-2.22,2.22v25.72l.09-.04c.55,5.61,4.39,8.9,10.51,8.9h2.39c2.02,3.97,4.67,7.6,7.87,10.8,.81,.81,1.66,1.59,2.52,2.33h-17.07Zm-54.1,0c-.24,0-.43-.19-.43-.43V22.17c0-.24,.19-.43,.43-.43h14c.24,0,.43,.19,.43,.43v64c0,.24-.19,.43-.43,.43h-14Zm-25.04,0c-.24,0-.43-.19-.43-.43V49.95c0-10.26-3.63-15.04-11.43-15.04-9.39,0-15.45,6.82-15.45,17.37v33.89c0,.24-.19,.43-.43,.43h-14c-.24,0-.43-.19-.43-.43V23.67c0-.24,.19-.43,.43-.43h9.49c.17,0,.33,.1,.4,.26l2.17,5.08c.35,.83,1.16,1.36,2.06,1.36,.59,0,1.15-.23,1.57-.65,4.76-4.8,11.65-7.55,18.91-7.55,13.52,0,21.6,9.51,21.6,25.45v38.98c0,.24-.19,.43-.43,.43h-14.02ZM1.33,86.6c-.24,0-.43-.19-.43-.43V22.17c0-.24,.19-.43,.43-.43H15.33c.24,0,.43,.19,.43,.43v64c0,.24-.19,.43-.43,.43H1.33ZM175.13,15.77c-4.1,0-7.43-3.33-7.43-7.43s3.33-7.43,7.43-7.43,7.43,3.33,7.43,7.43-3.33,7.43-7.43,7.43Zm-166.79,0c-.32,0-.65-.02-.97-.06-3.29-.42-5.99-3.11-6.4-6.4-.27-2.17,.36-4.26,1.79-5.88C4.17,1.82,6.2,.9,8.34,.9c.32,0,.65,.02,.97,.06,3.29,.42,5.98,3.11,6.4,6.4,.27,2.17-.36,4.26-1.79,5.88-1.41,1.6-3.44,2.52-5.58,2.52h0Z"/></g></g></g></svg>